<svg width="183" height="52" viewBox="0 0 183 52" fill="none" xmlns="http://www.w3.org/2000/svg">
<g id="logo 4" clip-path="url(#clip0_472_1596)">
<g id="Clip path group">
<mask id="mask0_472_1596" style="mask-type:luminance" maskUnits="userSpaceOnUse" x="0" y="0" width="183" height="52">
<g id="clip0_402_1541">
<path id="Vector" d="M183 0H0V52H183V0Z" fill="white"/>
</g>
</mask>
<g mask="url(#mask0_472_1596)">
<g id="Group">
<path id="Vector_2" d="M15.7472 6.74866C20.2391 6.74866 23.7091 7.90206 26.1569 10.2089C28.6047 12.5157 29.8287 15.8745 29.8287 20.2853C29.8287 24.6961 28.6047 28.0549 26.1569 30.3617C23.7091 32.6685 20.2391 33.8219 15.7472 33.8219C11.2553 33.8219 7.78539 32.6812 5.33754 30.3997C2.91492 28.093 1.70361 24.7214 1.70361 20.2853C1.70361 15.8492 2.91492 12.4903 5.33754 10.2089C7.78539 7.90206 11.2553 6.74866 15.7472 6.74866ZM15.7472 13.0227C13.9555 13.0227 12.5927 13.5677 11.6591 14.6577C10.7253 15.7477 10.2585 17.218 10.2585 19.0685V21.5021C10.2585 23.3525 10.7253 24.8229 11.6591 25.9129C12.5927 27.0028 13.9555 27.5479 15.7472 27.5479C17.539 27.5479 18.9017 27.0028 19.8354 25.9129C20.7944 24.8229 21.2738 23.3525 21.2738 21.5021V19.0685C21.2738 17.218 20.7944 15.7477 19.8354 14.6577C18.9017 13.5677 17.539 13.0227 15.7472 13.0227Z" fill="white"/>
<path id="Vector_3" d="M15.7472 6.74866C20.2391 6.74866 23.7091 7.90206 26.1569 10.2089C28.6047 12.5157 29.8287 15.8745 29.8287 20.2853C29.8287 24.6961 28.6047 28.0549 26.1569 30.3617C23.7091 32.6685 20.2391 33.8219 15.7472 33.8219C11.2553 33.8219 7.78539 32.6812 5.33754 30.3997C2.91492 28.093 1.70361 24.7214 1.70361 20.2853C1.70361 15.8492 2.91492 12.4903 5.33754 10.2089C7.78539 7.90206 11.2553 6.74866 15.7472 6.74866ZM15.7472 13.0227C13.9555 13.0227 12.5927 13.5677 11.6591 14.6577C10.7253 15.7477 10.2585 17.218 10.2585 19.0685V21.5021C10.2585 23.3525 10.7253 24.8229 11.6591 25.9129C12.5927 27.0028 13.9555 27.5479 15.7472 27.5479C17.539 27.5479 18.9017 27.0028 19.8354 25.9129C20.7944 24.8229 21.2738 23.3525 21.2738 21.5021V19.0685C21.2738 17.218 20.7944 15.7477 19.8354 14.6577C18.9017 13.5677 17.539 13.0227 15.7472 13.0227Z" fill="white" fill-opacity="0.2"/>
<path id="Vector_4" d="M34.3335 7.20496H55.38V13.479H42.6991V17.9658H53.6009V23.9736H42.6991V33.3656H34.3335V7.20496Z" fill="white"/>
<path id="Vector_5" d="M34.3335 7.20496H55.38V13.479H42.6991V17.9658H53.6009V23.9736H42.6991V33.3656H34.3335V7.20496Z" fill="white" fill-opacity="0.2"/>
<path id="Vector_6" d="M59.5815 7.20496H80.628V13.479H67.9472V17.9658H78.8489V23.9736H67.9472V33.3656H59.5815V7.20496Z" fill="white"/>
<path id="Vector_7" d="M59.5815 7.20496H80.628V13.479H67.9472V17.9658H78.8489V23.9736H67.9472V33.3656H59.5815V7.20496Z" fill="white" fill-opacity="0.2"/>
<path id="Vector_8" d="M91.9081 33.3656L82.6719 7.20496H91.6053L96.8291 24.6961H96.9805L102.242 7.20496H110.797L101.599 33.3656H91.9081Z" fill="white"/>
<path id="Vector_9" d="M91.9081 33.3656L82.6719 7.20496H91.6053L96.8291 24.6961H96.9805L102.242 7.20496H110.797L101.599 33.3656H91.9081Z" fill="white" fill-opacity="0.2"/>
<path id="Vector_10" d="M114.67 33.3656V7.20496H123.036V33.3656H114.67Z" fill="white"/>
<path id="Vector_11" d="M114.67 33.3656V7.20496H123.036V33.3656H114.67Z" fill="white" fill-opacity="0.2"/>
<path id="Vector_12" d="M139.944 6.74866C143.275 6.74866 146.013 7.43309 148.157 8.80196C150.303 10.1455 151.4 12.1481 151.451 14.8098V15.2661H143.615V15.114C143.615 14.3535 143.338 13.7198 142.783 13.2128C142.227 12.7057 141.383 12.4523 140.247 12.4523C139.136 12.4523 138.278 12.6171 137.672 12.9466C137.092 13.2761 136.801 13.6818 136.801 14.1634C136.801 14.8478 137.205 15.3548 138.013 15.6843C138.821 16.0138 140.12 16.3561 141.912 16.711C144.006 17.142 145.722 17.5983 147.061 18.0799C148.423 18.5362 149.609 19.2966 150.618 20.3613C151.628 21.426 152.145 22.8709 152.171 24.6961C152.171 27.7888 151.123 30.0828 149.028 31.5785C146.959 33.0741 144.183 33.8219 140.701 33.8219C136.637 33.8219 133.471 33.1375 131.2 31.7686C128.954 30.3997 127.831 27.9789 127.831 24.506H135.742C135.742 25.8241 136.083 26.7114 136.764 27.1677C137.446 27.5986 138.505 27.8141 139.944 27.8141C141.004 27.8141 141.874 27.7 142.556 27.4719C143.261 27.2437 143.615 26.7747 143.615 26.065C143.615 25.4313 143.224 24.9623 142.442 24.6581C141.685 24.3286 140.436 23.9863 138.694 23.6314C136.574 23.1751 134.821 22.7061 133.433 22.2245C132.045 21.7175 130.834 20.8937 129.798 19.7529C128.764 18.6122 128.247 17.0659 128.247 15.114C128.247 12.2495 129.345 10.1455 131.541 8.80196C133.761 7.43309 136.562 6.74866 139.944 6.74866Z" fill="white"/>
<path id="Vector_13" d="M139.944 6.74866C143.275 6.74866 146.013 7.43309 148.157 8.80196C150.303 10.1455 151.4 12.1481 151.451 14.8098V15.2661H143.615V15.114C143.615 14.3535 143.338 13.7198 142.783 13.2128C142.227 12.7057 141.383 12.4523 140.247 12.4523C139.136 12.4523 138.278 12.6171 137.672 12.9466C137.092 13.2761 136.801 13.6818 136.801 14.1634C136.801 14.8478 137.205 15.3548 138.013 15.6843C138.821 16.0138 140.12 16.3561 141.912 16.711C144.006 17.142 145.722 17.5983 147.061 18.0799C148.423 18.5362 149.609 19.2966 150.618 20.3613C151.628 21.426 152.145 22.8709 152.171 24.6961C152.171 27.7888 151.123 30.0828 149.028 31.5785C146.959 33.0741 144.183 33.8219 140.701 33.8219C136.637 33.8219 133.471 33.1375 131.2 31.7686C128.954 30.3997 127.831 27.9789 127.831 24.506H135.742C135.742 25.8241 136.083 26.7114 136.764 27.1677C137.446 27.5986 138.505 27.8141 139.944 27.8141C141.004 27.8141 141.874 27.7 142.556 27.4719C143.261 27.2437 143.615 26.7747 143.615 26.065C143.615 25.4313 143.224 24.9623 142.442 24.6581C141.685 24.3286 140.436 23.9863 138.694 23.6314C136.574 23.1751 134.821 22.7061 133.433 22.2245C132.045 21.7175 130.834 20.8937 129.798 19.7529C128.764 18.6122 128.247 17.0659 128.247 15.114C128.247 12.2495 129.345 10.1455 131.541 8.80196C133.761 7.43309 136.562 6.74866 139.944 6.74866Z" fill="white" fill-opacity="0.2"/>
<path id="Vector_14" d="M173.772 33.3656L172.674 29.6773H163.552L162.454 33.3656H153.899L163.4 7.20496H173.129L182.63 33.3656H173.772ZM165.293 23.8215H170.933L168.209 14.5056H168.057L165.293 23.8215Z" fill="white"/>
<path id="Vector_15" d="M173.772 33.3656L172.674 29.6773H163.552L162.454 33.3656H153.899L163.4 7.20496H173.129L182.63 33.3656H173.772ZM165.293 23.8215H170.933L168.209 14.5056H168.057L165.293 23.8215Z" fill="white" fill-opacity="0.2"/>
<path id="Vector_16" d="M1.8335 42.7211C1.8335 42.6183 1.85907 42.5156 1.91021 42.4129C1.96987 42.3101 2.03806 42.2202 2.11476 42.1432C2.2 42.0575 2.29375 41.989 2.39603 41.9377C2.49831 41.8777 2.60059 41.8478 2.70287 41.8478H7.84241C7.94469 41.8478 8.04697 41.8777 8.14925 41.9377C8.25153 41.989 8.34103 42.0575 8.41774 42.1432C8.50297 42.2202 8.57116 42.3101 8.62229 42.4129C8.68196 42.5156 8.71179 42.6183 8.71179 42.7211V47.6013C8.71179 47.704 8.68196 47.8067 8.62229 47.9095C8.57116 48.0122 8.50297 48.1064 8.41774 48.192C8.34103 48.2691 8.25153 48.3376 8.14925 48.3975C8.04697 48.4489 7.94469 48.4746 7.84241 48.4746H2.70287C2.60059 48.4746 2.49831 48.4489 2.39603 48.3975C2.29375 48.3376 2.2 48.2691 2.11476 48.192C2.03806 48.1064 1.96987 48.0122 1.91021 47.9095C1.85907 47.8067 1.8335 47.704 1.8335 47.6013V42.7211ZM2.83072 47.5884H7.71455V42.7339H2.83072V47.5884Z" fill="white"/>
<path id="Vector_17" d="M11.7236 42.0918C11.7236 42.0233 11.7449 41.9676 11.7876 41.9248C11.8387 41.8735 11.8941 41.8478 11.9538 41.8478H17.1317C17.1998 41.8478 17.2552 41.8735 17.2979 41.9248C17.3405 41.9676 17.3618 42.0233 17.3618 42.0918V42.4899C17.3618 42.5584 17.3405 42.6183 17.2979 42.6697C17.2552 42.7125 17.1998 42.7339 17.1317 42.7339H12.7209V48.2434C12.7209 48.3033 12.6953 48.359 12.6441 48.4104C12.6015 48.4532 12.5504 48.4746 12.4907 48.4746H11.9538C11.8941 48.4746 11.8387 48.4532 11.7876 48.4104C11.7449 48.359 11.7236 48.3033 11.7236 48.2434V42.0918ZM13.424 45.1355C13.424 45.067 13.4453 45.0113 13.488 44.9685C13.5391 44.9257 13.5988 44.9043 13.6669 44.9043H16.7225C16.7907 44.9043 16.8461 44.9257 16.8887 44.9685C16.9399 45.0113 16.9655 45.067 16.9655 45.1355V45.5208C16.9655 45.5893 16.9399 45.6492 16.8887 45.7006C16.8461 45.7434 16.7907 45.7648 16.7225 45.7648H13.6669C13.5988 45.7648 13.5391 45.7434 13.488 45.7006C13.4453 45.6492 13.424 45.5893 13.424 45.5208V45.1355Z" fill="white"/>
<path id="Vector_18" d="M19.0527 42.0918C19.0527 42.0233 19.074 41.9676 19.1167 41.9248C19.1678 41.8735 19.2232 41.8478 19.2829 41.8478H24.4608C24.5289 41.8478 24.5843 41.8735 24.627 41.9248C24.6696 41.9676 24.6909 42.0233 24.6909 42.0918V42.4899C24.6909 42.5584 24.6696 42.6183 24.627 42.6697C24.5843 42.7125 24.5289 42.7339 24.4608 42.7339H20.05V48.2434C20.05 48.3033 20.0244 48.359 19.9733 48.4104C19.9306 48.4532 19.8795 48.4746 19.8198 48.4746H19.2829C19.2232 48.4746 19.1678 48.4532 19.1167 48.4104C19.074 48.359 19.0527 48.3033 19.0527 48.2434V42.0918ZM20.7531 45.1355C20.7531 45.067 20.7744 45.0113 20.8171 44.9685C20.8682 44.9257 20.9279 44.9043 20.996 44.9043H24.0516C24.1198 44.9043 24.1752 44.9257 24.2178 44.9685C24.269 45.0113 24.2946 45.067 24.2946 45.1355V45.5208C24.2946 45.5893 24.269 45.6492 24.2178 45.7006C24.1752 45.7434 24.1198 45.7648 24.0516 45.7648H20.996C20.9279 45.7648 20.8682 45.7434 20.8171 45.7006C20.7744 45.6492 20.7531 45.5893 20.7531 45.5208V45.1355Z" fill="white"/>
<path id="Vector_19" d="M26.3813 42.0789C26.3813 42.0105 26.4027 41.9548 26.4453 41.912C26.4964 41.8692 26.5518 41.8478 26.6115 41.8478H27.1484C27.2081 41.8478 27.2592 41.8692 27.3019 41.912C27.353 41.9548 27.3786 42.0105 27.3786 42.0789V48.2434C27.3786 48.3033 27.353 48.359 27.3019 48.4104C27.2592 48.4532 27.2081 48.4746 27.1484 48.4746H26.6115C26.5518 48.4746 26.4964 48.4532 26.4453 48.4104C26.4027 48.359 26.3813 48.3033 26.3813 48.2434V42.0789Z" fill="white"/>
<path id="Vector_20" d="M30.3877 42.5541C30.3877 42.4 30.4516 42.2459 30.5795 42.0918C30.7073 41.9291 30.882 41.8478 31.1037 41.8478H36.1153C36.1835 41.8478 36.2389 41.8735 36.2815 41.9248C36.3242 41.9676 36.3455 42.019 36.3455 42.0789V42.5028C36.3455 42.5712 36.3242 42.6269 36.2815 42.6697C36.2389 42.7125 36.1835 42.7339 36.1153 42.7339H31.3849V47.5884H36.2815C36.3497 47.5884 36.4051 47.6098 36.4478 47.6526C36.4904 47.6954 36.5117 47.7511 36.5117 47.8196V48.2434C36.5117 48.3033 36.4904 48.359 36.4478 48.4104C36.4051 48.4532 36.3497 48.4746 36.2815 48.4746H31.0909C30.8863 48.4746 30.7158 48.4018 30.5795 48.2562C30.4516 48.1107 30.3877 47.948 30.3877 47.7682V42.5541Z" fill="white"/>
<path id="Vector_21" d="M39.0918 42.0789C39.0918 42.0105 39.1131 41.9548 39.1557 41.912C39.2069 41.8692 39.2623 41.8478 39.3219 41.8478H39.8589C39.9186 41.8478 39.9697 41.8692 40.0123 41.912C40.0635 41.9548 40.089 42.0105 40.089 42.0789V48.2434C40.089 48.3033 40.0635 48.359 40.0123 48.4104C39.9697 48.4532 39.9186 48.4746 39.8589 48.4746H39.3219C39.2623 48.4746 39.2069 48.4532 39.1557 48.4104C39.1131 48.359 39.0918 48.3033 39.0918 48.2434V42.0789Z" fill="white"/>
<path id="Vector_22" d="M49.3276 48.2691C49.3446 48.3205 49.3532 48.3504 49.3532 48.359C49.3532 48.436 49.3105 48.4746 49.2253 48.4746H48.5094C48.4412 48.4746 48.39 48.4403 48.3559 48.3718L47.6272 46.8436H44.5588C44.4991 46.8436 44.4693 46.8136 44.4693 46.7537C44.4693 46.728 44.4736 46.7066 44.4821 46.6894L44.7634 46.1244C44.7975 46.0388 44.8614 45.9959 44.9551 45.9959H47.2181L45.6583 42.6183L42.8712 48.3718C42.8371 48.4403 42.786 48.4746 42.7178 48.4746H42.0785C41.9933 48.4746 41.9507 48.436 41.9507 48.359C41.9507 48.3504 41.9592 48.3205 41.9763 48.2691L45.0063 42.0918C45.0404 42.0233 45.0873 41.9676 45.1469 41.9248C45.2151 41.8735 45.2833 41.8478 45.3515 41.8478H45.9524C46.0206 41.8478 46.0845 41.8735 46.1441 41.9248C46.2123 41.9676 46.2635 42.0233 46.2976 42.0918L49.3276 48.2691Z" fill="white"/>
<path id="Vector_23" d="M51.2397 42.0789C51.2397 42.019 51.2611 41.9676 51.3037 41.9248C51.3548 41.8735 51.4145 41.8478 51.4827 41.8478H52.0068C52.075 41.8478 52.1304 41.8735 52.173 41.9248C52.2242 41.9676 52.2498 42.019 52.2498 42.0789V47.5884H56.5071C56.5753 47.5884 56.6307 47.6141 56.6733 47.6655C56.7245 47.7083 56.7501 47.7639 56.7501 47.8324V48.2306C56.7501 48.2991 56.7245 48.359 56.6733 48.4104C56.6307 48.4532 56.5753 48.4746 56.5071 48.4746H51.4827C51.4145 48.4746 51.3548 48.4532 51.3037 48.4104C51.2611 48.359 51.2397 48.2991 51.2397 48.2306V42.0789Z" fill="white"/>
<path id="Vector_24" d="M62.0148 42.0533C61.9978 42.0019 61.9893 41.9719 61.9893 41.9634C61.9893 41.8863 62.0319 41.8478 62.1171 41.8478H62.8714C62.9396 41.8478 62.9907 41.882 63.0248 41.9505L66.0293 48.2691C66.0463 48.3033 66.0549 48.3333 66.0549 48.359C66.0549 48.436 66.008 48.4746 65.9142 48.4746H65.2366C65.1684 48.4746 65.1173 48.4403 65.0832 48.3718L62.0148 42.0533ZM66.5023 47.3444C66.4768 47.3872 66.4469 47.4086 66.4128 47.4086C66.3702 47.4086 66.3404 47.3872 66.3234 47.3444L65.9526 46.561C65.9441 46.5525 65.9398 46.5396 65.9398 46.5225C65.9398 46.5054 65.9441 46.4882 65.9526 46.4711L68.0749 41.9505C68.109 41.882 68.1601 41.8478 68.2283 41.8478H68.9059C68.9911 41.8478 69.0338 41.8863 69.0338 41.9634C69.0338 41.9719 69.0252 42.0019 69.0082 42.0533L66.5023 47.3444Z" fill="white"/>
<path id="Vector_25" d="M71.0039 42.0789C71.0039 42.0105 71.0252 41.9548 71.0678 41.912C71.119 41.8692 71.1744 41.8478 71.234 41.8478H71.771C71.8307 41.8478 71.8818 41.8692 71.9244 41.912C71.9756 41.9548 72.0011 42.0105 72.0011 42.0789V48.2434C72.0011 48.3033 71.9756 48.359 71.9244 48.4104C71.8818 48.4532 71.8307 48.4746 71.771 48.4746H71.234C71.1744 48.4746 71.119 48.4532 71.0678 48.4104C71.0252 48.359 71.0039 48.3033 71.0039 48.2434V42.0789Z" fill="white"/>
<path id="Vector_26" d="M75.6235 46.561C75.7173 46.561 75.7642 46.6038 75.7642 46.6894C75.7983 46.9377 75.9005 47.1518 76.071 47.3316C76.25 47.5028 76.4801 47.5884 76.7614 47.5884H79.2033C79.4931 47.5884 79.7318 47.4857 79.9193 47.2802C80.1068 47.0747 80.2005 46.835 80.2005 46.561C80.2005 46.287 80.1068 46.0516 79.9193 45.8547C79.7318 45.6578 79.4931 45.5593 79.2033 45.5593H76.8765C76.6208 45.5593 76.3821 45.5122 76.1605 45.418C75.9389 45.3153 75.7429 45.1826 75.5724 45.0199C75.4105 44.8487 75.2826 44.6517 75.1889 44.4291C75.0951 44.198 75.0482 43.954 75.0482 43.6971C75.0482 43.4403 75.0951 43.2005 75.1889 42.9779C75.2826 42.7553 75.4105 42.5627 75.5724 42.4C75.7429 42.2288 75.9389 42.0961 76.1605 42.0019C76.3821 41.8991 76.6208 41.8478 76.8765 41.8478H79.1522C79.3653 41.8478 79.5783 41.8906 79.7914 41.9762C80.013 42.0618 80.2091 42.1817 80.3795 42.3358C80.5585 42.4813 80.7034 42.6569 80.8142 42.8623C80.925 43.0678 80.9804 43.2904 80.9804 43.5302C80.9804 43.6158 80.9335 43.6586 80.8398 43.6586H80.29C80.2048 43.6586 80.1579 43.6158 80.1494 43.5302C80.1153 43.3076 80.0173 43.1192 79.8553 42.9651C79.7019 42.811 79.4974 42.7339 79.2417 42.7339H76.8253C76.5526 42.7339 76.331 42.8238 76.1605 43.0036C75.99 43.1834 75.9048 43.4017 75.9048 43.6586C75.9048 43.9069 75.9858 44.1252 76.1477 44.3136C76.3182 44.5019 76.544 44.5961 76.8253 44.5961H79.1777C79.442 44.5961 79.6891 44.6475 79.9193 44.7502C80.1579 44.8444 80.3625 44.9814 80.533 45.1612C80.7119 45.3324 80.8526 45.5379 80.9549 45.7776C81.0571 46.0088 81.1083 46.2614 81.1083 46.5353C81.1083 46.8093 81.0571 47.0662 80.9549 47.3059C80.8526 47.5371 80.7119 47.7383 80.533 47.9095C80.3625 48.0807 80.1579 48.2177 79.9193 48.3205C79.6891 48.4232 79.442 48.4746 79.1777 48.4746H76.7742C76.5441 48.4746 76.3139 48.4318 76.0838 48.3461C75.8622 48.252 75.6576 48.1278 75.4701 47.9737C75.2911 47.811 75.142 47.6227 75.0226 47.4086C74.9118 47.186 74.8564 46.9506 74.8564 46.7023C74.8564 46.6081 74.9033 46.561 74.9971 46.561H75.6235Z" fill="white"/>
<path id="Vector_27" d="M90.2294 48.2691C90.2465 48.3205 90.255 48.3504 90.255 48.359C90.255 48.436 90.2124 48.4746 90.1272 48.4746H89.4112C89.343 48.4746 89.2919 48.4403 89.2578 48.3718L88.5291 46.8436H85.4607C85.401 46.8436 85.3712 46.8136 85.3712 46.7537C85.3712 46.728 85.3754 46.7066 85.384 46.6894L85.6652 46.1244C85.6993 46.0388 85.7632 45.9959 85.857 45.9959H88.1199L86.5602 42.6183L83.7731 48.3718C83.739 48.4403 83.6878 48.4746 83.6196 48.4746H82.9804C82.8952 48.4746 82.8525 48.436 82.8525 48.359C82.8525 48.3504 82.8611 48.3205 82.8781 48.2691L85.9081 42.0918C85.9422 42.0233 85.9891 41.9676 86.0488 41.9248C86.117 41.8735 86.1851 41.8478 86.2533 41.8478H86.8542C86.9224 41.8478 86.9863 41.8735 87.046 41.9248C87.1142 41.9676 87.1653 42.0233 87.1994 42.0918L90.2294 48.2691Z" fill="white"/>
<path id="Vector_28" d="M102.914 44.7759C102.983 44.7759 103.038 44.7973 103.081 44.8401C103.132 44.8829 103.157 44.9386 103.157 45.0071V47.7554C103.157 47.9523 103.089 48.1235 102.953 48.2691C102.816 48.4061 102.65 48.4746 102.454 48.4746H98.4781C98.4184 48.4746 98.363 48.4532 98.3119 48.4104C98.2693 48.359 98.2479 48.2991 98.2479 48.2306V47.8324C98.2479 47.7639 98.2693 47.7083 98.3119 47.6655C98.363 47.6141 98.4184 47.5884 98.4781 47.5884H102.186V45.585H99.7821C99.7139 45.585 99.6543 45.5636 99.6031 45.5208C99.5605 45.4694 99.5392 45.4095 99.5392 45.341V45.0071C99.5392 44.9386 99.5605 44.8829 99.6031 44.8401C99.6543 44.7973 99.7139 44.7759 99.7821 44.7759H102.914ZM102.441 41.8478C102.637 41.8478 102.804 41.9206 102.94 42.0661C103.085 42.2031 103.157 42.37 103.157 42.567V43.4659C103.157 43.5344 103.132 43.5944 103.081 43.6457C103.038 43.6886 102.983 43.71 102.914 43.71H102.39C102.237 43.71 102.16 43.6286 102.16 43.4659V42.7339H97.5192V48.2306C97.5192 48.2991 97.4979 48.359 97.4553 48.4104C97.4127 48.4532 97.3573 48.4746 97.2891 48.4746H96.7649C96.6967 48.4746 96.637 48.4532 96.5859 48.4104C96.5433 48.359 96.522 48.2991 96.522 48.2306V42.0918C96.522 42.0233 96.5433 41.9676 96.5859 41.9248C96.637 41.8735 96.6967 41.8478 96.7649 41.8478H102.441Z" fill="white"/>
<path id="Vector_29" d="M105.923 42.7211C105.923 42.6183 105.949 42.5156 106 42.4129C106.06 42.3101 106.128 42.2202 106.205 42.1432C106.29 42.0575 106.384 41.989 106.486 41.9377C106.588 41.8777 106.69 41.8478 106.793 41.8478H111.932C112.035 41.8478 112.137 41.8777 112.239 41.9377C112.341 41.989 112.431 42.0575 112.508 42.1432C112.593 42.2202 112.661 42.3101 112.712 42.4129C112.772 42.5156 112.802 42.6183 112.802 42.7211V47.6013C112.802 47.704 112.772 47.8067 112.712 47.9095C112.661 48.0122 112.593 48.1064 112.508 48.192C112.431 48.2691 112.341 48.3376 112.239 48.3975C112.137 48.4489 112.035 48.4746 111.932 48.4746H106.793C106.69 48.4746 106.588 48.4489 106.486 48.3975C106.384 48.3376 106.29 48.2691 106.205 48.192C106.128 48.1064 106.06 48.0122 106 47.9095C105.949 47.8067 105.923 47.704 105.923 47.6013V42.7211ZM106.921 47.5884H111.804V42.7339H106.921V47.5884Z" fill="white"/>
<path id="Vector_30" d="M114.453 42.0533C114.436 42.0019 114.428 41.9719 114.428 41.9634C114.428 41.8863 114.47 41.8478 114.556 41.8478H115.31C115.378 41.8478 115.429 41.882 115.463 41.9505L118.468 48.2691C118.485 48.3033 118.493 48.3333 118.493 48.359C118.493 48.436 118.446 48.4746 118.353 48.4746H117.675C117.607 48.4746 117.556 48.4403 117.522 48.3718L114.453 42.0533ZM118.941 47.3444C118.915 47.3872 118.885 47.4086 118.851 47.4086C118.809 47.4086 118.779 47.3872 118.762 47.3444L118.391 46.561C118.383 46.5525 118.378 46.5396 118.378 46.5225C118.378 46.5054 118.383 46.4882 118.391 46.4711L120.513 41.9505C120.547 41.882 120.599 41.8478 120.667 41.8478H121.344C121.43 41.8478 121.472 41.8863 121.472 41.9634C121.472 41.9719 121.464 42.0019 121.447 42.0533L118.941 47.3444Z" fill="white"/>
<path id="Vector_31" d="M124.44 47.5884H128.978C129.038 47.5884 129.089 47.6141 129.132 47.6655C129.183 47.7083 129.208 47.7639 129.208 47.8324V48.2434C129.208 48.3033 129.183 48.359 129.132 48.4104C129.089 48.4532 129.038 48.4746 128.978 48.4746H123.685C123.626 48.4746 123.57 48.4532 123.519 48.4104C123.476 48.359 123.455 48.3033 123.455 48.2434V42.0918C123.455 42.0233 123.476 41.9676 123.519 41.9248C123.57 41.8735 123.626 41.8478 123.685 41.8478H128.914C128.983 41.8478 129.038 41.8735 129.08 41.9248C129.132 41.9676 129.157 42.0233 129.157 42.0918V42.5028C129.157 42.5627 129.132 42.6183 129.08 42.6697C129.038 42.7125 128.983 42.7339 128.914 42.7339H124.44V47.5884ZM125.143 44.8144C125.143 44.7459 125.164 44.6903 125.207 44.6475C125.249 44.6047 125.305 44.5833 125.373 44.5833H128.582C128.642 44.5833 128.693 44.6047 128.736 44.6475C128.786 44.6903 128.812 44.7459 128.812 44.8144V45.2125C128.812 45.281 128.786 45.3367 128.736 45.3795C128.693 45.4223 128.642 45.4437 128.582 45.4437H125.373C125.305 45.4437 125.249 45.4223 125.207 45.3795C125.164 45.3367 125.143 45.281 125.143 45.2125V44.8144Z" fill="white"/>
<path id="Vector_32" d="M131.571 42.0918C131.571 42.0233 131.592 41.9676 131.635 41.9248C131.677 41.8735 131.733 41.8478 131.8 41.8478H135.636C135.918 41.8478 136.177 41.9034 136.415 42.0147C136.663 42.1175 136.877 42.263 137.055 42.4514C137.243 42.6312 137.388 42.8452 137.489 43.0935C137.601 43.3332 137.656 43.5944 137.656 43.8769C137.656 44.1166 137.617 44.3435 137.541 44.5576C137.464 44.7716 137.358 44.9643 137.221 45.1355C137.085 45.3067 136.923 45.4566 136.735 45.585C136.548 45.7048 136.348 45.7905 136.135 45.8418L137.949 48.3333C137.967 48.359 137.976 48.3889 137.976 48.4232C137.976 48.466 137.949 48.4874 137.899 48.4874H137.093C137.033 48.4874 136.969 48.4703 136.902 48.436C136.841 48.3932 136.791 48.3419 136.749 48.2819L135.009 45.906H133.514C133.446 45.906 133.39 45.8846 133.347 45.8418C133.304 45.799 133.283 45.7434 133.283 45.6749V45.2768C133.283 45.2083 133.304 45.1526 133.347 45.1098C133.39 45.067 133.446 45.0456 133.514 45.0456H135.508C135.832 45.0456 136.109 44.9343 136.339 44.7117C136.578 44.4891 136.697 44.2151 136.697 43.8898C136.697 43.5644 136.578 43.2904 136.339 43.0678C136.109 42.8452 135.832 42.7339 135.508 42.7339H132.555V48.2434C132.555 48.3119 132.53 48.3675 132.478 48.4104C132.436 48.4532 132.381 48.4746 132.312 48.4746H131.8C131.733 48.4746 131.677 48.4532 131.635 48.4104C131.592 48.3675 131.571 48.3119 131.571 48.2434V42.0918Z" fill="white"/>
<path id="Vector_33" d="M145.973 42.0918C145.973 42.0233 145.994 41.9676 146.037 41.9248C146.088 41.8735 146.148 41.8478 146.216 41.8478H146.638C146.706 41.8478 146.761 41.8735 146.804 41.9248C146.855 41.9676 146.881 42.0233 146.881 42.0918V48.2434C146.881 48.3119 146.855 48.3675 146.804 48.4104C146.761 48.4532 146.706 48.4746 146.638 48.4746H146.164C146.106 48.4746 146.033 48.4574 145.948 48.4232C145.871 48.3804 145.807 48.329 145.756 48.2691L140.386 42.0533C140.344 42.0104 140.322 41.9634 140.322 41.912C140.322 41.8692 140.352 41.8478 140.411 41.8478H141.192C141.251 41.8478 141.315 41.882 141.384 41.9505L145.973 47.2802V42.0918ZM141.23 48.2434C141.23 48.3119 141.208 48.3675 141.166 48.4104C141.123 48.4532 141.068 48.4746 141 48.4746H140.565C140.496 48.4746 140.441 48.4532 140.399 48.4104C140.356 48.3675 140.335 48.3119 140.335 48.2434V43.1963C140.335 43.1449 140.352 43.1192 140.386 43.1192C140.42 43.1192 140.471 43.1577 140.539 43.2348L141.141 43.9411C141.2 44.0182 141.23 44.0867 141.23 44.1466V48.2434Z" fill="white"/>
<path id="Vector_34" d="M149.974 42.0918C149.974 42.0233 149.995 41.9676 150.038 41.9248C150.08 41.8735 150.135 41.8478 150.204 41.8478H150.588C150.681 41.8478 150.762 41.882 150.83 41.9505L153.605 45.2254L156.315 41.9505C156.375 41.882 156.439 41.8478 156.506 41.8478H157.185C157.243 41.8478 157.274 41.8735 157.274 41.9248C157.274 41.9505 157.252 41.9933 157.21 42.0533L153.809 46.1372C153.8 46.1543 153.784 46.1715 153.758 46.1886C153.706 46.2228 153.656 46.24 153.605 46.24C153.545 46.24 153.489 46.2228 153.438 46.1886C153.413 46.1715 153.395 46.1543 153.387 46.1372L150.805 43.132V48.2434C150.805 48.3119 150.78 48.3675 150.728 48.4104C150.686 48.4532 150.63 48.4746 150.561 48.4746H150.204C150.135 48.4746 150.08 48.4532 150.038 48.4104C149.995 48.3675 149.974 48.3119 149.974 48.2434V42.0918ZM156.354 44.1723C156.354 44.1124 156.384 44.0439 156.443 43.9668L157.057 43.2348C157.116 43.1577 157.167 43.1192 157.21 43.1192C157.243 43.1192 157.261 43.1449 157.261 43.1963V48.2434C157.261 48.3119 157.236 48.3675 157.185 48.4104C157.142 48.4532 157.087 48.4746 157.018 48.4746H156.583C156.515 48.4746 156.46 48.4532 156.417 48.4104C156.375 48.3675 156.354 48.3119 156.354 48.2434V44.1723Z" fill="white"/>
<path id="Vector_35" d="M161.359 47.5884H165.897C165.956 47.5884 166.008 47.6141 166.05 47.6655C166.102 47.7083 166.127 47.7639 166.127 47.8324V48.2434C166.127 48.3033 166.102 48.359 166.05 48.4104C166.008 48.4532 165.956 48.4746 165.897 48.4746H160.604C160.544 48.4746 160.489 48.4532 160.437 48.4104C160.395 48.359 160.374 48.3033 160.374 48.2434V42.0918C160.374 42.0233 160.395 41.9676 160.437 41.9248C160.489 41.8735 160.544 41.8478 160.604 41.8478H165.833C165.901 41.8478 165.956 41.8735 165.999 41.9248C166.05 41.9676 166.077 42.0233 166.077 42.0918V42.5028C166.077 42.5627 166.05 42.6183 165.999 42.6697C165.956 42.7125 165.901 42.7339 165.833 42.7339H161.359V47.5884ZM162.062 44.8144C162.062 44.7459 162.083 44.6903 162.126 44.6475C162.168 44.6047 162.224 44.5833 162.291 44.5833H165.501C165.56 44.5833 165.612 44.6047 165.654 44.6475C165.706 44.6903 165.731 44.7459 165.731 44.8144V45.2125C165.731 45.281 165.706 45.3367 165.654 45.3795C165.612 45.4223 165.56 45.4437 165.501 45.4437H162.291C162.224 45.4437 162.168 45.4223 162.126 45.3795C162.083 45.3367 162.062 45.281 162.062 45.2125V44.8144Z" fill="white"/>
<path id="Vector_36" d="M174.127 42.0918C174.127 42.0233 174.148 41.9676 174.191 41.9248C174.242 41.8735 174.302 41.8478 174.37 41.8478H174.793C174.86 41.8478 174.915 41.8735 174.958 41.9248C175.009 41.9676 175.034 42.0233 175.034 42.0918V48.2434C175.034 48.3119 175.009 48.3675 174.958 48.4104C174.915 48.4532 174.86 48.4746 174.793 48.4746H174.319C174.26 48.4746 174.187 48.4574 174.102 48.4232C174.025 48.3804 173.962 48.329 173.91 48.2691L168.54 42.0533C168.498 42.0104 168.477 41.9634 168.477 41.912C168.477 41.8692 168.507 41.8478 168.566 41.8478H169.345C169.405 41.8478 169.469 41.882 169.537 41.9505L174.127 47.2802V42.0918ZM169.384 48.2434C169.384 48.3119 169.363 48.3675 169.32 48.4104C169.277 48.4532 169.222 48.4746 169.153 48.4746H168.72C168.651 48.4746 168.596 48.4532 168.553 48.4104C168.51 48.3675 168.489 48.3119 168.489 48.2434V43.1963C168.489 43.1449 168.507 43.1192 168.54 43.1192C168.574 43.1192 168.626 43.1577 168.693 43.2348L169.295 43.9411C169.354 44.0182 169.384 44.0867 169.384 44.1466V48.2434Z" fill="white"/>
<path id="Vector_37" d="M176.722 42.0789C176.722 42.019 176.743 41.9676 176.786 41.9248C176.828 41.8735 176.883 41.8478 176.952 41.8478H182.922C182.99 41.8478 183.046 41.8735 183.089 41.9248C183.132 41.9676 183.153 42.019 183.153 42.0789V42.4899C183.153 42.6526 183.075 42.7339 182.922 42.7339H176.952C176.883 42.7339 176.828 42.7125 176.786 42.6697C176.743 42.6183 176.722 42.5584 176.722 42.4899V42.0789ZM179.432 43.6714C179.432 43.6029 179.453 43.5473 179.496 43.5045C179.547 43.4617 179.607 43.4403 179.675 43.4403H180.186C180.255 43.4403 180.31 43.4617 180.353 43.5045C180.395 43.5473 180.417 43.6029 180.417 43.6714V48.2434C180.417 48.3119 180.395 48.3675 180.353 48.4104C180.31 48.4532 180.255 48.4746 180.186 48.4746H179.675C179.607 48.4746 179.547 48.4532 179.496 48.4104C179.453 48.3675 179.432 48.3119 179.432 48.2434V43.6714Z" fill="white"/>
</g>
</g>
</g>
</g>
<defs>
<clipPath id="clip0_472_1596">
<rect width="183" height="52" fill="white"/>
</clipPath>
</defs>
</svg>
