<svg width="140" height="40" viewBox="0 0 140 40" fill="none" xmlns="http://www.w3.org/2000/svg">
<g clip-path="url(#clip0_473_1669)">
<mask id="mask0_473_1669" style="mask-type:luminance" maskUnits="userSpaceOnUse" x="0" y="0" width="140" height="40">
<path d="M140 0H0V40H140V0Z" fill="white"/>
</mask>
<g mask="url(#mask0_473_1669)">
<path d="M12.047 5.19116C15.4834 5.19116 18.138 6.0784 20.0107 7.85286C21.8833 9.62732 22.8197 12.211 22.8197 15.6039C22.8197 18.9969 21.8833 21.5806 20.0107 23.355C18.138 25.1295 15.4834 26.0167 12.047 26.0167C8.61051 26.0167 5.95595 25.1392 4.08328 23.3843C2.22991 21.6099 1.30322 19.0163 1.30322 15.6039C1.30322 12.1915 2.22991 9.60782 4.08328 7.85286C5.95595 6.0784 8.61051 5.19116 12.047 5.19116ZM12.047 10.0173C10.6762 10.0173 9.6337 10.4366 8.91941 11.275C8.20509 12.1135 7.84793 13.2445 7.84793 14.668V16.5399C7.84793 17.9634 8.20509 19.0944 8.91941 19.9329C9.6337 20.7713 10.6762 21.1906 12.047 21.1906C13.4177 21.1906 14.4602 20.7713 15.1745 19.9329C15.9082 19.0944 16.275 17.9634 16.275 16.5399V14.668C16.275 13.2445 15.9082 12.1135 15.1745 11.275C14.4602 10.4366 13.4177 10.0173 12.047 10.0173Z" fill="white"/>
<path d="M12.047 5.19116C15.4834 5.19116 18.138 6.0784 20.0107 7.85286C21.8833 9.62732 22.8197 12.211 22.8197 15.6039C22.8197 18.9969 21.8833 21.5806 20.0107 23.355C18.138 25.1295 15.4834 26.0167 12.047 26.0167C8.61051 26.0167 5.95595 25.1392 4.08328 23.3843C2.22991 21.6099 1.30322 19.0163 1.30322 15.6039C1.30322 12.1915 2.22991 9.60782 4.08328 7.85286C5.95595 6.0784 8.61051 5.19116 12.047 5.19116ZM12.047 10.0173C10.6762 10.0173 9.6337 10.4366 8.91941 11.275C8.20509 12.1135 7.84793 13.2445 7.84793 14.668V16.5399C7.84793 17.9634 8.20509 19.0944 8.91941 19.9329C9.6337 20.7713 10.6762 21.1906 12.047 21.1906C13.4177 21.1906 14.4602 20.7713 15.1745 19.9329C15.9082 19.0944 16.275 17.9634 16.275 16.5399V14.668C16.275 13.2445 15.9082 12.1135 15.1745 11.275C14.4602 10.4366 13.4177 10.0173 12.047 10.0173Z" fill="white" fill-opacity="0.2"/>
<path d="M26.2661 5.54224H42.3673V10.3684H32.666V13.8198H41.0062V18.4412H32.666V25.6658H26.2661V5.54224Z" fill="white"/>
<path d="M26.2661 5.54224H42.3673V10.3684H32.666V13.8198H41.0062V18.4412H32.666V25.6658H26.2661V5.54224Z" fill="white" fill-opacity="0.2"/>
<path d="M45.5815 5.54224H61.6827V10.3684H51.9815V13.8198H60.3216V18.4412H51.9815V25.6658H45.5815V5.54224Z" fill="white"/>
<path d="M45.5815 5.54224H61.6827V10.3684H51.9815V13.8198H60.3216V18.4412H51.9815V25.6658H45.5815V5.54224Z" fill="white" fill-opacity="0.2"/>
<path d="M70.3121 25.6658L63.2461 5.54224H70.0804L74.0767 18.997H74.1926L78.2179 5.54224H84.7626L77.7255 25.6658H70.3121Z" fill="white"/>
<path d="M70.3121 25.6658L63.2461 5.54224H70.0804L74.0767 18.997H74.1926L78.2179 5.54224H84.7626L77.7255 25.6658H70.3121Z" fill="white" fill-opacity="0.2"/>
<path d="M87.7256 25.6658V5.54224H94.1255V25.6658H87.7256Z" fill="white"/>
<path d="M87.7256 25.6658V5.54224H94.1255V25.6658H87.7256Z" fill="white" fill-opacity="0.2"/>
<path d="M107.061 5.19116C109.61 5.19116 111.704 5.71765 113.344 6.77063C114.986 7.80411 115.825 9.34458 115.865 11.392V11.743H109.869V11.626C109.869 11.041 109.658 10.5536 109.233 10.1636C108.808 9.77354 108.162 9.57857 107.293 9.57857C106.443 9.57857 105.786 9.70535 105.323 9.95881C104.879 10.2123 104.657 10.5243 104.657 10.8948C104.657 11.4213 104.966 11.8113 105.584 12.0648C106.202 12.3182 107.196 12.5815 108.566 12.8545C110.169 13.186 111.481 13.537 112.505 13.9075C113.548 14.2585 114.455 14.8435 115.227 15.6624C116 16.4814 116.395 17.5929 116.415 18.9969C116.415 21.3759 115.613 23.1405 114.011 24.291C112.428 25.4415 110.304 26.0167 107.64 26.0167C104.531 26.0167 102.109 25.4902 100.371 24.4373C98.6531 23.3843 97.7939 21.5221 97.7939 18.8506H103.847C103.847 19.8646 104.107 20.5471 104.628 20.8981C105.15 21.2296 105.96 21.3953 107.061 21.3953C107.872 21.3953 108.538 21.3076 109.059 21.1321C109.599 20.9566 109.869 20.5958 109.869 20.0499C109.869 19.5624 109.57 19.2016 108.972 18.9676C108.393 18.7142 107.438 18.4509 106.105 18.1779C104.483 17.8269 103.142 17.4661 102.08 17.0957C101.018 16.7056 100.091 16.0719 99.2994 15.1945C98.5083 14.317 98.1123 13.1275 98.1123 11.626C98.1123 9.42257 98.9523 7.80411 100.632 6.77063C102.331 5.71765 104.474 5.19116 107.061 5.19116Z" fill="white"/>
<path d="M107.061 5.19116C109.61 5.19116 111.704 5.71765 113.344 6.77063C114.986 7.80411 115.825 9.34458 115.865 11.392V11.743H109.869V11.626C109.869 11.041 109.658 10.5536 109.233 10.1636C108.808 9.77354 108.162 9.57857 107.293 9.57857C106.443 9.57857 105.786 9.70535 105.323 9.95881C104.879 10.2123 104.657 10.5243 104.657 10.8948C104.657 11.4213 104.966 11.8113 105.584 12.0648C106.202 12.3182 107.196 12.5815 108.566 12.8545C110.169 13.186 111.481 13.537 112.505 13.9075C113.548 14.2585 114.455 14.8435 115.227 15.6624C116 16.4814 116.395 17.5929 116.415 18.9969C116.415 21.3759 115.613 23.1405 114.011 24.291C112.428 25.4415 110.304 26.0167 107.64 26.0167C104.531 26.0167 102.109 25.4902 100.371 24.4373C98.6531 23.3843 97.7939 21.5221 97.7939 18.8506H103.847C103.847 19.8646 104.107 20.5471 104.628 20.8981C105.15 21.2296 105.96 21.3953 107.061 21.3953C107.872 21.3953 108.538 21.3076 109.059 21.1321C109.599 20.9566 109.869 20.5958 109.869 20.0499C109.869 19.5624 109.57 19.2016 108.972 18.9676C108.393 18.7142 107.438 18.4509 106.105 18.1779C104.483 17.8269 103.142 17.4661 102.08 17.0957C101.018 16.7056 100.091 16.0719 99.2994 15.1945C98.5083 14.317 98.1123 13.1275 98.1123 11.626C98.1123 9.42257 98.9523 7.80411 100.632 6.77063C102.331 5.71765 104.474 5.19116 107.061 5.19116Z" fill="white" fill-opacity="0.2"/>
<path d="M132.941 25.6658L132.101 22.8286H125.122L124.282 25.6658H117.737L125.006 5.54224H132.449L139.717 25.6658H132.941ZM126.454 18.3242H130.769L128.684 11.1581H128.568L126.454 18.3242Z" fill="white"/>
<path d="M132.941 25.6658L132.101 22.8286H125.122L124.282 25.6658H117.737L125.006 5.54224H132.449L139.717 25.6658H132.941ZM126.454 18.3242H130.769L128.684 11.1581H128.568L126.454 18.3242Z" fill="white" fill-opacity="0.2"/>
<path d="M1.40283 32.8622C1.40283 32.7832 1.42239 32.7041 1.46152 32.6251C1.50716 32.5461 1.55933 32.4769 1.61801 32.4176C1.68322 32.3518 1.75494 32.2991 1.83319 32.2596C1.91143 32.2135 1.98968 32.1904 2.06793 32.1904H5.99982C6.07806 32.1904 6.15631 32.2135 6.23456 32.2596C6.3128 32.2991 6.38127 32.3518 6.43996 32.4176C6.50516 32.4769 6.55733 32.5461 6.59645 32.6251C6.64209 32.7041 6.66491 32.7832 6.66491 32.8622V36.6162C6.66491 36.6952 6.64209 36.7743 6.59645 36.8533C6.55733 36.9323 6.50516 37.0048 6.43996 37.0706C6.38127 37.1299 6.3128 37.1826 6.23456 37.2287C6.15631 37.2682 6.07806 37.288 5.99982 37.288H2.06793C1.98968 37.288 1.91143 37.2682 1.83319 37.2287C1.75494 37.1826 1.68322 37.1299 1.61801 37.0706C1.55933 37.0048 1.50716 36.9323 1.46152 36.8533C1.42239 36.7743 1.40283 36.6952 1.40283 36.6162V32.8622ZM2.16574 36.6063H5.902V32.8721H2.16574V36.6063Z" fill="white"/>
<path d="M8.96875 32.3781C8.96875 32.3254 8.98505 32.2826 9.01765 32.2497C9.05678 32.2102 9.09916 32.1904 9.14481 32.1904H13.106C13.1582 32.1904 13.2006 32.2102 13.2332 32.2497C13.2658 32.2826 13.2821 32.3254 13.2821 32.3781V32.6844C13.2821 32.7371 13.2658 32.7832 13.2332 32.8227C13.2006 32.8556 13.1582 32.8721 13.106 32.8721H9.73165V37.1101C9.73165 37.1562 9.71209 37.199 9.67297 37.2386C9.64037 37.2715 9.60124 37.288 9.5556 37.288H9.14481C9.09916 37.288 9.05678 37.2715 9.01765 37.2386C8.98505 37.199 8.96875 37.1562 8.96875 37.1101V32.3781ZM10.2696 34.7194C10.2696 34.6667 10.2859 34.6239 10.3185 34.591C10.3576 34.5581 10.4033 34.5416 10.4554 34.5416H12.7931C12.8452 34.5416 12.8876 34.5581 12.9202 34.591C12.9593 34.6239 12.9789 34.6667 12.9789 34.7194V35.0158C12.9789 35.0685 12.9593 35.1146 12.9202 35.1541C12.8876 35.187 12.8452 35.2035 12.7931 35.2035H10.4554C10.4033 35.2035 10.3576 35.187 10.3185 35.1541C10.2859 35.1146 10.2696 35.0685 10.2696 35.0158V34.7194Z" fill="white"/>
<path d="M14.5757 32.3781C14.5757 32.3254 14.592 32.2826 14.6246 32.2497C14.6637 32.2102 14.7061 32.1904 14.7517 32.1904H18.713C18.7651 32.1904 18.8075 32.2102 18.8401 32.2497C18.8727 32.2826 18.889 32.3254 18.889 32.3781V32.6844C18.889 32.7371 18.8727 32.7832 18.8401 32.8227C18.8075 32.8556 18.7651 32.8721 18.713 32.8721H15.3386V37.1101C15.3386 37.1562 15.319 37.199 15.2799 37.2386C15.2473 37.2715 15.2082 37.288 15.1625 37.288H14.7517C14.7061 37.288 14.6637 37.2715 14.6246 37.2386C14.592 37.199 14.5757 37.1562 14.5757 37.1101V32.3781ZM15.8765 34.7194C15.8765 34.6667 15.8928 34.6239 15.9254 34.591C15.9646 34.5581 16.0102 34.5416 16.0624 34.5416H18.4C18.4521 34.5416 18.4945 34.5581 18.5271 34.591C18.5663 34.6239 18.5858 34.6667 18.5858 34.7194V35.0158C18.5858 35.0685 18.5663 35.1146 18.5271 35.1541C18.4945 35.187 18.4521 35.2035 18.4 35.2035H16.0624C16.0102 35.2035 15.9646 35.187 15.9254 35.1541C15.8928 35.1146 15.8765 35.0685 15.8765 35.0158V34.7194Z" fill="white"/>
<path d="M20.1826 32.3683C20.1826 32.3156 20.1989 32.2728 20.2315 32.2398C20.2706 32.2069 20.313 32.1904 20.3587 32.1904H20.7695C20.8151 32.1904 20.8542 32.2069 20.8868 32.2398C20.926 32.2728 20.9455 32.3156 20.9455 32.3683V37.1101C20.9455 37.1562 20.926 37.199 20.8868 37.2386C20.8542 37.2715 20.8151 37.288 20.7695 37.288H20.3587C20.313 37.288 20.2706 37.2715 20.2315 37.2386C20.1989 37.199 20.1826 37.1562 20.1826 37.1101V32.3683Z" fill="white"/>
<path d="M23.2471 32.7338C23.2471 32.6152 23.296 32.4967 23.3938 32.3781C23.4916 32.253 23.6253 32.1904 23.7948 32.1904H27.6289C27.681 32.1904 27.7234 32.2102 27.756 32.2497C27.7886 32.2826 27.8049 32.3221 27.8049 32.3683V32.6943C27.8049 32.7469 27.7886 32.7898 27.756 32.8227C27.7234 32.8556 27.681 32.8721 27.6289 32.8721H24.01V36.6063H27.756C27.8082 36.6063 27.8506 36.6228 27.8832 36.6557C27.9158 36.6886 27.9321 36.7314 27.9321 36.7841V37.1101C27.9321 37.1562 27.9158 37.199 27.8832 37.2386C27.8506 37.2715 27.8082 37.288 27.756 37.288H23.785C23.6285 37.288 23.4981 37.232 23.3938 37.12C23.296 37.0081 23.2471 36.8829 23.2471 36.7446V32.7338Z" fill="white"/>
<path d="M29.9062 32.3683C29.9062 32.3156 29.9225 32.2728 29.9552 32.2398C29.9943 32.2069 30.0367 32.1904 30.0823 32.1904H30.4931C30.5387 32.1904 30.5779 32.2069 30.6105 32.2398C30.6496 32.2728 30.6692 32.3156 30.6692 32.3683V37.1101C30.6692 37.1562 30.6496 37.199 30.6105 37.2386C30.5779 37.2715 30.5387 37.288 30.4931 37.288H30.0823C30.0367 37.288 29.9943 37.2715 29.9552 37.2386C29.9225 37.199 29.9062 37.1562 29.9062 37.1101V32.3683Z" fill="white"/>
<path d="M37.7368 37.1299C37.7498 37.1694 37.7564 37.1925 37.7564 37.199C37.7564 37.2583 37.7238 37.288 37.6585 37.288H37.1108C37.0587 37.288 37.0195 37.2616 36.9935 37.2089L36.4359 36.0333H34.0885C34.0429 36.0333 34.0201 36.0103 34.0201 35.9642C34.0201 35.9444 34.0233 35.928 34.0299 35.9148L34.245 35.4801C34.2711 35.4143 34.32 35.3813 34.3918 35.3813H36.123L34.9297 32.7832L32.7975 37.2089C32.7714 37.2616 32.7323 37.288 32.6801 37.288H32.1911C32.1259 37.288 32.0933 37.2583 32.0933 37.199C32.0933 37.1925 32.0998 37.1694 32.1128 37.1299L34.4309 32.3781C34.457 32.3254 34.4928 32.2826 34.5385 32.2497C34.5906 32.2102 34.6428 32.1904 34.695 32.1904H35.1547C35.2068 32.1904 35.2557 32.2102 35.3014 32.2497C35.3535 32.2826 35.3927 32.3254 35.4187 32.3781L37.7368 37.1299Z" fill="white"/>
<path d="M39.1997 32.3683C39.1997 32.3221 39.216 32.2826 39.2486 32.2497C39.2877 32.2102 39.3334 32.1904 39.3855 32.1904H39.7866C39.8387 32.1904 39.8811 32.2102 39.9137 32.2497C39.9528 32.2826 39.9724 32.3221 39.9724 32.3683V36.6063H43.2294C43.2816 36.6063 43.324 36.6261 43.3566 36.6656C43.3957 36.6985 43.4152 36.7413 43.4152 36.794V37.1003C43.4152 37.1529 43.3957 37.199 43.3566 37.2386C43.324 37.2715 43.2816 37.288 43.2294 37.288H39.3855C39.3334 37.288 39.2877 37.2715 39.2486 37.2386C39.216 37.199 39.1997 37.1529 39.1997 37.1003V32.3683Z" fill="white"/>
<path d="M47.4429 32.3485C47.4299 32.309 47.4233 32.2859 47.4233 32.2793C47.4233 32.2201 47.4559 32.1904 47.5211 32.1904H48.0982C48.1504 32.1904 48.1895 32.2168 48.2156 32.2695L50.5141 37.1299C50.5271 37.1562 50.5336 37.1793 50.5336 37.199C50.5336 37.2583 50.4978 37.288 50.4261 37.288H49.9077C49.8555 37.288 49.8164 37.2616 49.7903 37.2089L47.4429 32.3485ZM50.876 36.4186C50.8564 36.4515 50.8336 36.468 50.8075 36.468C50.7749 36.468 50.7521 36.4515 50.739 36.4186L50.4554 35.816C50.4489 35.8094 50.4456 35.7995 50.4456 35.7864C50.4456 35.7732 50.4489 35.76 50.4554 35.7468L52.079 32.2695C52.1051 32.2168 52.1442 32.1904 52.1964 32.1904H52.7148C52.78 32.1904 52.8126 32.2201 52.8126 32.2793C52.8126 32.2859 52.8061 32.309 52.793 32.3485L50.876 36.4186Z" fill="white"/>
<path d="M54.3198 32.3683C54.3198 32.3156 54.3361 32.2728 54.3687 32.2398C54.4078 32.2069 54.4502 32.1904 54.4959 32.1904H54.9067C54.9523 32.1904 54.9914 32.2069 55.024 32.2398C55.0632 32.2728 55.0827 32.3156 55.0827 32.3683V37.1101C55.0827 37.1562 55.0632 37.199 55.024 37.2386C54.9914 37.2715 54.9523 37.288 54.9067 37.288H54.4959C54.4502 37.288 54.4078 37.2715 54.3687 37.2386C54.3361 37.199 54.3198 37.1562 54.3198 37.1101V32.3683Z" fill="white"/>
<path d="M57.8539 35.816C57.9257 35.816 57.9615 35.8489 57.9615 35.9148C57.9876 36.1058 58.0659 36.2704 58.1963 36.4087C58.3332 36.5405 58.5093 36.6063 58.7244 36.6063H60.5926C60.8143 36.6063 60.9968 36.5273 61.1403 36.3692C61.2837 36.2112 61.3555 36.0267 61.3555 35.816C61.3555 35.6052 61.2837 35.4241 61.1403 35.2727C60.9968 35.1212 60.8143 35.0454 60.5926 35.0454H58.8125C58.6168 35.0454 58.4343 35.0092 58.2647 34.9368C58.0952 34.8577 57.9452 34.7557 57.8148 34.6305C57.6909 34.4988 57.5931 34.3473 57.5214 34.1761C57.4497 33.9983 57.4138 33.8106 57.4138 33.613C57.4138 33.4154 57.4497 33.231 57.5214 33.0598C57.5931 32.8885 57.6909 32.7404 57.8148 32.6152C57.9452 32.4835 58.0952 32.3814 58.2647 32.309C58.4343 32.2299 58.6168 32.1904 58.8125 32.1904H60.5534C60.7165 32.1904 60.8795 32.2234 61.0425 32.2892C61.212 32.3551 61.362 32.4473 61.4924 32.5658C61.6293 32.6778 61.7402 32.8128 61.825 32.9709C61.9097 33.1289 61.9521 33.3002 61.9521 33.4846C61.9521 33.5504 61.9162 33.5834 61.8445 33.5834H61.4239C61.3587 33.5834 61.3229 33.5504 61.3163 33.4846C61.2903 33.3133 61.2153 33.1684 61.0914 33.0499C60.974 32.9313 60.8175 32.8721 60.6219 32.8721H58.7733C58.5647 32.8721 58.3951 32.9412 58.2647 33.0795C58.1343 33.2178 58.0691 33.3858 58.0691 33.5834C58.0691 33.7744 58.1311 33.9423 58.255 34.0872C58.3854 34.2321 58.5582 34.3045 58.7733 34.3045H60.573C60.7751 34.3045 60.9642 34.344 61.1403 34.4231C61.3229 34.4955 61.4794 34.6009 61.6098 34.7392C61.7467 34.8709 61.8543 35.029 61.9325 35.2134C62.0108 35.3912 62.0499 35.5855 62.0499 35.7962C62.0499 36.007 62.0108 36.2046 61.9325 36.389C61.8543 36.5668 61.7467 36.7216 61.6098 36.8533C61.4794 36.985 61.3229 37.0904 61.1403 37.1694C60.9642 37.2484 60.7751 37.288 60.573 37.288H58.7342C58.5582 37.288 58.3821 37.255 58.206 37.1892C58.0365 37.1167 57.88 37.0212 57.7366 36.9027C57.5996 36.7775 57.4855 36.6327 57.3942 36.468C57.3095 36.2968 57.2671 36.1157 57.2671 35.9247C57.2671 35.8522 57.3029 35.816 57.3747 35.816H57.8539Z" fill="white"/>
<path d="M69.0278 37.1299C69.0409 37.1694 69.0474 37.1925 69.0474 37.199C69.0474 37.2583 69.0148 37.288 68.9496 37.288H68.4018C68.3497 37.288 68.3105 37.2616 68.2845 37.2089L67.727 36.0333H65.3796C65.3339 36.0333 65.3111 36.0103 65.3111 35.9642C65.3111 35.9444 65.3144 35.928 65.3209 35.9148L65.5361 35.4801C65.5621 35.4143 65.611 35.3813 65.6828 35.3813H67.414L66.2207 32.7832L64.0885 37.2089C64.0624 37.2616 64.0233 37.288 63.9711 37.288H63.4821C63.4169 37.288 63.3843 37.2583 63.3843 37.199C63.3843 37.1925 63.3908 37.1694 63.4038 37.1299L65.7219 32.3781C65.748 32.3254 65.7838 32.2826 65.8295 32.2497C65.8816 32.2102 65.9338 32.1904 65.986 32.1904H66.4457C66.4978 32.1904 66.5467 32.2102 66.5924 32.2497C66.6446 32.2826 66.6837 32.3254 66.7098 32.3781L69.0278 37.1299Z" fill="white"/>
<path d="M78.7322 34.4428C78.7844 34.4428 78.8268 34.4593 78.8594 34.4922C78.8985 34.5252 78.918 34.568 78.918 34.6206V36.7347C78.918 36.8862 78.8659 37.0179 78.7616 37.1299C78.6572 37.2353 78.5301 37.288 78.3801 37.288H75.3383C75.2926 37.288 75.2502 37.2715 75.2111 37.2386C75.1785 37.199 75.1622 37.1529 75.1622 37.1003V36.794C75.1622 36.7413 75.1785 36.6985 75.2111 36.6656C75.2502 36.6261 75.2926 36.6063 75.3383 36.6063H78.1747V35.0652H76.3359C76.2837 35.0652 76.2381 35.0487 76.199 35.0158C76.1664 34.9763 76.1501 34.9302 76.1501 34.8775V34.6206C76.1501 34.568 76.1664 34.5252 76.199 34.4922C76.2381 34.4593 76.2837 34.4428 76.3359 34.4428H78.7322ZM78.3703 32.1904C78.5203 32.1904 78.6474 32.2464 78.7518 32.3584C78.8626 32.4637 78.918 32.5922 78.918 32.7436V33.4352C78.918 33.4879 78.8985 33.534 78.8594 33.5735C78.8268 33.6064 78.7844 33.6229 78.7322 33.6229H78.3312C78.2138 33.6229 78.1551 33.5603 78.1551 33.4352V32.8721H74.6047V37.1003C74.6047 37.1529 74.5884 37.199 74.5558 37.2386C74.5232 37.2715 74.4808 37.288 74.4286 37.288H74.0276C73.9755 37.288 73.9298 37.2715 73.8907 37.2386C73.8581 37.199 73.8418 37.1529 73.8418 37.1003V32.3781C73.8418 32.3254 73.8581 32.2826 73.8907 32.2497C73.9298 32.2102 73.9755 32.1904 74.0276 32.1904H78.3703Z" fill="white"/>
<path d="M81.0342 32.8622C81.0342 32.7832 81.0537 32.7041 81.0929 32.6251C81.1385 32.5461 81.1907 32.4769 81.2494 32.4176C81.3146 32.3518 81.3863 32.2991 81.4645 32.2596C81.5428 32.2135 81.621 32.1904 81.6993 32.1904H85.6312C85.7094 32.1904 85.7877 32.2135 85.8659 32.2596C85.9442 32.2991 86.0126 32.3518 86.0713 32.4176C86.1365 32.4769 86.1887 32.5461 86.2278 32.6251C86.2734 32.7041 86.2963 32.7832 86.2963 32.8622V36.6162C86.2963 36.6952 86.2734 36.7743 86.2278 36.8533C86.1887 36.9323 86.1365 37.0048 86.0713 37.0706C86.0126 37.1299 85.9442 37.1826 85.8659 37.2287C85.7877 37.2682 85.7094 37.288 85.6312 37.288H81.6993C81.621 37.288 81.5428 37.2682 81.4645 37.2287C81.3863 37.1826 81.3146 37.1299 81.2494 37.0706C81.1907 37.0048 81.1385 36.9323 81.0929 36.8533C81.0537 36.7743 81.0342 36.6952 81.0342 36.6162V32.8622ZM81.7971 36.6063H85.5334V32.8721H81.7971V36.6063Z" fill="white"/>
<path d="M87.5596 32.3485C87.5466 32.309 87.54 32.2859 87.54 32.2793C87.54 32.2201 87.5726 32.1904 87.6378 32.1904H88.2149C88.2671 32.1904 88.3062 32.2168 88.3323 32.2695L90.6308 37.1299C90.6438 37.1562 90.6503 37.1793 90.6503 37.199C90.6503 37.2583 90.6145 37.288 90.5427 37.288H90.0244C89.9722 37.288 89.9331 37.2616 89.907 37.2089L87.5596 32.3485ZM90.9927 36.4186C90.9731 36.4515 90.9503 36.468 90.9242 36.468C90.8916 36.468 90.8688 36.4515 90.8557 36.4186L90.5721 35.816C90.5656 35.8094 90.5623 35.7995 90.5623 35.7864C90.5623 35.7732 90.5656 35.76 90.5721 35.7468L92.1957 32.2695C92.2218 32.2168 92.2609 32.1904 92.3131 32.1904H92.8315C92.8967 32.1904 92.9293 32.2201 92.9293 32.2793C92.9293 32.2859 92.9228 32.309 92.9097 32.3485L90.9927 36.4186Z" fill="white"/>
<path d="M95.1994 36.6063H98.6712C98.7172 36.6063 98.7566 36.6261 98.7892 36.6656C98.8285 36.6985 98.8477 36.7413 98.8477 36.794V37.1101C98.8477 37.1562 98.8285 37.199 98.7892 37.2386C98.7566 37.2715 98.7172 37.288 98.6712 37.288H94.6223C94.5767 37.288 94.5343 37.2715 94.4952 37.2386C94.4626 37.199 94.4463 37.1562 94.4463 37.1101V32.3781C94.4463 32.3254 94.4626 32.2826 94.4952 32.2497C94.5343 32.2102 94.5767 32.1904 94.6223 32.1904H98.6223C98.6751 32.1904 98.7172 32.2102 98.7498 32.2497C98.7892 32.2826 98.8083 32.3254 98.8083 32.3781V32.6943C98.8083 32.7404 98.7892 32.7832 98.7498 32.8227C98.7172 32.8556 98.6751 32.8721 98.6223 32.8721H95.1994V36.6063ZM95.7374 34.4725C95.7374 34.4198 95.7537 34.377 95.7863 34.344C95.8189 34.3111 95.8612 34.2946 95.9134 34.2946H98.3682C98.4142 34.2946 98.4535 34.3111 98.4861 34.344C98.5245 34.377 98.5447 34.4198 98.5447 34.4725V34.7787C98.5447 34.8314 98.5245 34.8742 98.4861 34.9071C98.4535 34.9401 98.4142 34.9565 98.3682 34.9565H95.9134C95.8612 34.9565 95.8189 34.9401 95.7863 34.9071C95.7537 34.8742 95.7374 34.8314 95.7374 34.7787V34.4725Z" fill="white"/>
<path d="M100.655 32.3781C100.655 32.3254 100.672 32.2826 100.704 32.2497C100.737 32.2102 100.779 32.1904 100.831 32.1904H103.765C103.981 32.1904 104.179 32.2332 104.361 32.3189C104.551 32.3979 104.714 32.5098 104.85 32.6547C104.994 32.793 105.106 32.9577 105.183 33.1487C105.269 33.3331 105.311 33.534 105.311 33.7513C105.311 33.9357 105.281 34.1102 105.223 34.2749C105.164 34.4395 105.083 34.5877 104.978 34.7194C104.873 34.8512 104.75 34.9664 104.606 35.0652C104.463 35.1574 104.31 35.2233 104.147 35.2628L105.535 37.1793C105.549 37.199 105.555 37.2221 105.555 37.2484C105.555 37.2814 105.535 37.2978 105.497 37.2978H104.88C104.834 37.2978 104.785 37.2847 104.733 37.2583C104.687 37.2254 104.649 37.1859 104.617 37.1398L103.286 35.3122H102.142C102.09 35.3122 102.047 35.2957 102.014 35.2628C101.981 35.2298 101.965 35.187 101.965 35.1344V34.8281C101.965 34.7754 101.981 34.7326 102.014 34.6997C102.047 34.6667 102.09 34.6503 102.142 34.6503H103.667C103.916 34.6503 104.127 34.5647 104.303 34.3934C104.486 34.2222 104.577 34.0114 104.577 33.7612C104.577 33.5109 104.486 33.3002 104.303 33.1289C104.127 32.9577 103.916 32.8721 103.667 32.8721H101.408V37.1101C101.408 37.1628 101.389 37.2056 101.35 37.2386C101.317 37.2715 101.275 37.288 101.222 37.288H100.831C100.779 37.288 100.737 37.2715 100.704 37.2386C100.672 37.2056 100.655 37.1628 100.655 37.1101V32.3781Z" fill="white"/>
<path d="M111.673 32.3781C111.673 32.3254 111.69 32.2826 111.722 32.2497C111.762 32.2102 111.808 32.1904 111.859 32.1904H112.183C112.234 32.1904 112.276 32.2102 112.309 32.2497C112.348 32.2826 112.369 32.3254 112.369 32.3781V37.1101C112.369 37.1628 112.348 37.2056 112.309 37.2386C112.276 37.2715 112.234 37.288 112.183 37.288H111.82C111.775 37.288 111.719 37.2748 111.654 37.2484C111.596 37.2155 111.547 37.176 111.507 37.1299L107.399 32.3485C107.367 32.3156 107.351 32.2793 107.351 32.2398C107.351 32.2069 107.374 32.1904 107.419 32.1904H108.016C108.061 32.1904 108.11 32.2168 108.163 32.2695L111.673 36.3692V32.3781ZM108.045 37.1101C108.045 37.1628 108.029 37.2056 107.996 37.2386C107.963 37.2715 107.921 37.288 107.869 37.288H107.537C107.484 37.288 107.442 37.2715 107.409 37.2386C107.376 37.2056 107.36 37.1628 107.36 37.1101V33.2277C107.36 33.1882 107.374 33.1684 107.399 33.1684C107.425 33.1684 107.465 33.1981 107.516 33.2574L107.977 33.8007C108.022 33.86 108.045 33.9127 108.045 33.9588V37.1101Z" fill="white"/>
<path d="M114.734 32.3781C114.734 32.3254 114.75 32.2826 114.783 32.2497C114.815 32.2102 114.858 32.1904 114.91 32.1904H115.204C115.275 32.1904 115.337 32.2168 115.389 32.2695L117.512 34.7886L119.585 32.2695C119.631 32.2168 119.68 32.1904 119.732 32.1904H120.25C120.296 32.1904 120.319 32.2102 120.319 32.2497C120.319 32.2695 120.302 32.3024 120.27 32.3485L117.668 35.49C117.661 35.5032 117.649 35.5163 117.629 35.5295C117.589 35.5559 117.551 35.569 117.512 35.569C117.466 35.569 117.424 35.5559 117.384 35.5295C117.365 35.5163 117.352 35.5032 117.345 35.49L115.37 33.1783V37.1101C115.37 37.1628 115.35 37.2056 115.311 37.2386C115.279 37.2715 115.236 37.288 115.184 37.288H114.91C114.858 37.288 114.815 37.2715 114.783 37.2386C114.75 37.2056 114.734 37.1628 114.734 37.1101V32.3781ZM119.615 33.9785C119.615 33.9324 119.638 33.8797 119.683 33.8205L120.153 33.2574C120.198 33.1981 120.237 33.1684 120.27 33.1684C120.296 33.1684 120.309 33.1882 120.309 33.2277V37.1101C120.309 37.1628 120.29 37.2056 120.25 37.2386C120.218 37.2715 120.176 37.288 120.123 37.288H119.79C119.738 37.288 119.696 37.2715 119.664 37.2386C119.631 37.2056 119.615 37.1628 119.615 37.1101V33.9785Z" fill="white"/>
<path d="M123.444 36.6063H126.916C126.961 36.6063 127 36.6261 127.033 36.6656C127.072 36.6985 127.091 36.7413 127.091 36.794V37.1101C127.091 37.1562 127.072 37.199 127.033 37.2386C127 37.2715 126.961 37.288 126.916 37.288H122.866C122.82 37.288 122.778 37.2715 122.739 37.2386C122.706 37.199 122.69 37.1562 122.69 37.1101V32.3781C122.69 32.3254 122.706 32.2826 122.739 32.2497C122.778 32.2102 122.82 32.1904 122.866 32.1904H126.867C126.919 32.1904 126.961 32.2102 126.994 32.2497C127.033 32.2826 127.053 32.3254 127.053 32.3781V32.6943C127.053 32.7404 127.033 32.7832 126.994 32.8227C126.961 32.8556 126.919 32.8721 126.867 32.8721H123.444V36.6063ZM123.982 34.4725C123.982 34.4198 123.998 34.377 124.03 34.344C124.063 34.3111 124.105 34.2946 124.157 34.2946H126.613C126.658 34.2946 126.697 34.3111 126.73 34.344C126.769 34.377 126.788 34.4198 126.788 34.4725V34.7787C126.788 34.8314 126.769 34.8742 126.73 34.9071C126.697 34.9401 126.658 34.9565 126.613 34.9565H124.157C124.105 34.9565 124.063 34.9401 124.03 34.9071C123.998 34.8742 123.982 34.8314 123.982 34.7787V34.4725Z" fill="white"/>
<path d="M133.212 32.3781C133.212 32.3254 133.228 32.2826 133.261 32.2497C133.3 32.2102 133.346 32.1904 133.398 32.1904H133.721C133.773 32.1904 133.815 32.2102 133.848 32.2497C133.887 32.2826 133.906 32.3254 133.906 32.3781V37.1101C133.906 37.1628 133.887 37.2056 133.848 37.2386C133.815 37.2715 133.773 37.288 133.721 37.288H133.359C133.314 37.288 133.258 37.2748 133.193 37.2484C133.134 37.2155 133.085 37.176 133.046 37.1299L128.938 32.3485C128.905 32.3156 128.889 32.2793 128.889 32.2398C128.889 32.2069 128.912 32.1904 128.957 32.1904H129.554C129.6 32.1904 129.649 32.2168 129.7 32.2695L133.212 36.3692V32.3781ZM129.583 37.1101C129.583 37.1628 129.567 37.2056 129.535 37.2386C129.502 37.2715 129.46 37.288 129.407 37.288H129.075C129.022 37.288 128.98 37.2715 128.948 37.2386C128.915 37.2056 128.899 37.1628 128.899 37.1101V33.2277C128.899 33.1882 128.912 33.1684 128.938 33.1684C128.964 33.1684 129.003 33.1981 129.055 33.2574L129.515 33.8007C129.56 33.86 129.583 33.9127 129.583 33.9588V37.1101Z" fill="white"/>
<path d="M135.197 32.3683C135.197 32.3221 135.213 32.2826 135.246 32.2497C135.278 32.2102 135.32 32.1904 135.373 32.1904H139.94C139.992 32.1904 140.035 32.2102 140.068 32.2497C140.101 32.2826 140.117 32.3221 140.117 32.3683V32.6844C140.117 32.8095 140.057 32.8721 139.94 32.8721H135.373C135.32 32.8721 135.278 32.8556 135.246 32.8227C135.213 32.7832 135.197 32.7371 135.197 32.6844V32.3683ZM137.27 33.5932C137.27 33.5405 137.286 33.4977 137.319 33.4648C137.358 33.4319 137.404 33.4154 137.456 33.4154H137.847C137.9 33.4154 137.942 33.4319 137.975 33.4648C138.007 33.4977 138.024 33.5405 138.024 33.5932V37.1101C138.024 37.1628 138.007 37.2056 137.975 37.2386C137.942 37.2715 137.9 37.288 137.847 37.288H137.456C137.404 37.288 137.358 37.2715 137.319 37.2386C137.286 37.2056 137.27 37.1628 137.27 37.1101V33.5932Z" fill="white"/>
</g>
</g>
<defs>
<clipPath id="clip0_473_1669">
<rect width="140" height="40" fill="white"/>
</clipPath>
</defs>
</svg>
